<svg width="24" height="20" viewBox="0 0 24 20" fill="none" xmlns="http://www.w3.org/2000/svg">
<path fill-rule="evenodd" clip-rule="evenodd" d="M16 2.5V5H21.7675C23.0004 5 24 5.95947 24 7.14282V17.8572C24 19.0405 23.0004 20 21.7675 20H2.23254C0.999619 20 0 19.0405 0 17.8572V7.14282C0 5.95947 0.999619 5 2.23254 5H8V2.5C8 1.11938 8.84282 0 9.88234 0H14.1177C15.1572 0 16 1.11938 16 2.5ZM9.88234 5H14.1177V2.5H9.88234V5Z" fill="#0F0302"/>
<path d="M8 11L11.5 7L15 11H8Z" fill="#3E8CC7"/>
<path d="M19.7533 12.6976C18.3059 12.2238 16.8253 12.7783 16.4463 13.9361C16.0673 15.0939 16.9334 16.4166 18.3809 16.8904C19.8283 17.3642 21.3089 16.8097 21.6879 15.6519C22.0669 14.4941 21.2007 13.1714 19.7533 12.6976Z" fill="#87CED9"/>
<path d="M0 10V12.2727L5.83334 15L7 13.1818L0 10Z" fill="#FDB62F"/>
</svg>
