<svg width="52" height="32" viewBox="0 0 52 32" fill="none" xmlns="http://www.w3.org/2000/svg">
<path d="M3.22685 3.78974C3.22685 1.98996 4.67584 0.531006 6.46334 0.531006V0.531108H26V0.531006H45.5367C47.3242 0.531006 48.7732 1.99006 48.7732 3.78974V17.4231L26 18.4457L3.22685 17.4231V3.78974Z" fill="#CACACA"/>
<path d="M9.69525 16.4005V13.1418C9.69525 11.342 11.1442 9.88306 12.9317 9.88306H22.7635C24.551 9.88306 26 11.342 26 13.1418L27.0156 15.509L26 17.4231L9.69525 16.4005Z" fill="#FCFCFC"/>
<path d="M26 17.4231V13.1418C26 11.342 27.449 9.88306 29.2365 9.88306H39.0682C40.8557 9.88306 42.3047 11.342 42.3047 13.1418V16.4005L26 17.4231Z" fill="#FCFCFC"/>
<path d="M0.571075 19.6592C0.571075 17.8594 2.02007 16.4005 3.80757 16.4005V16.4004L48.1924 16.4005C49.9799 16.4005 51.429 17.8594 51.4289 19.6592C51.4289 21.459 49.9799 22.918 48.1924 22.918L26 23.9406L3.80757 22.918C2.02007 22.918 0.571075 21.459 0.571075 19.6592Z" fill="#E1E1E1"/>
<path d="M0 23V29H3V31.531H6.04688V29L45.9531 29V31.531H49V29H52V23H0Z" fill="#8D8D8D"/>
</svg>
