<svg width="17" height="30" viewBox="0 0 17 30" fill="none" xmlns="http://www.w3.org/2000/svg">
<path fill-rule="evenodd" clip-rule="evenodd" d="M4.96548 0H11.5862C12.1958 0 12.6896 0.493896 12.6896 1.10352C12.6896 1.71313 12.1958 2.20679 11.5862 2.20679H11.0345V7.17236H14.3448C15.5636 7.17236 16.5517 8.1604 16.5517 9.37915V27.0344C16.5517 28.2532 15.5636 29.2412 14.3448 29.2412H2.20688C0.988129 29.2412 0 28.2532 0 27.0344V9.37915C0 8.1604 0.988129 7.17236 2.20688 7.17236H5.51724V2.20679H4.96548C4.35587 2.20679 3.86206 1.71313 3.86206 1.10352C3.86206 0.493896 4.35587 0 4.96548 0ZM6.62067 7.17236H9.93106V2.20679H6.62067V7.17236Z" fill="#0F0302"/>
<path d="M8 13.0697L11.3322 12.3311L11.622 15.7318L8 13.0697Z" fill="#F5C059"/>
<path d="M6.99325 21.8578C5.54582 21.384 4.06522 21.9385 3.68623 23.0963C3.30723 24.2541 4.17337 25.5768 5.62079 26.0506C7.06821 26.5244 8.54881 25.9699 8.92781 24.812C9.3068 23.6542 8.44067 22.3316 6.99325 21.8578Z" fill="#F24C4C"/>
<path d="M5 14.7778L0 17V13.6667L3.8889 12L5 14.7778Z" fill="#89D987"/>
</svg>
